<?xml version="1.0" encoding="UTF-8"?>
<svg id="Layer_1" data-name="Layer 1" xmlns="http://www.w3.org/2000/svg" width="13.41mm" height="11.99mm" viewBox="0 0 38 34">
  <defs>
    <style>
      .cls-1 {
        fill: #005844;
      }

      .cls-1, .cls-2 {
        stroke-width: 0px;
      }

      .cls-2 {
        fill: #1ea663;
      }
    </style>
  </defs>
  <g>
    <path class="cls-2" d="M29.32,4.98c-.5.46-.99.94-1.51,1.4-.7.62-1.45.63-2.02.04-.55-.56-.49-1.37.17-2.02.92-.9,1.84-1.81,2.78-2.68,1.38-1.28,2.7-1.28,4.09-.02.97.88,1.91,1.79,2.85,2.69.65.63.71,1.45.17,2.03-.54.58-1.35.57-2.02-.05-.48-.44-.95-.9-1.42-1.35-.02-.02-.08-.01-.13-.02-.17.17-.09.4-.09.6,0,3.23,0,6.46,0,9.69,0,2.35-.95,4.16-3.1,5.24-.78.39-1.63.55-2.51.55-4.79,0-9.58,0-14.38-.01-1.29,0-2.24.49-2.78,1.68-.36.79-.16,1.62-.19,2.44-.01.28.28.29.45.38,1.51.87,2.33,2.16,2.19,3.9-.13,1.61-1,2.79-2.53,3.43-2,.84-4.24-.08-5.18-2.1-.89-1.93-.11-4.22,1.8-5.18.41-.21.55-.43.52-.87-.08-1.46.09-2.86.98-4.09,1.05-1.45,2.45-2.27,4.23-2.28,4.85-.04,9.71-.02,14.57-.02.87,0,1.68-.21,2.34-.79.61-.53.85-1.24.86-2.04.01-3.42.01-6.84.02-10.26,0-.11-.02-.21-.16-.3Z"/>
    <path class="cls-1" d="M7.8,33.73c-1.7,0-3.3-1-4.09-2.71-1.02-2.2-.12-4.76,2.03-5.84.25-.13.26-.18.25-.39-.07-1.27,0-2.92,1.07-4.41,1.18-1.64,2.74-2.47,4.63-2.49,3.68-.03,7.35-.02,11.03-.02h3.54c.84,0,1.5-.22,2.01-.66.46-.4.68-.94.68-1.66,0-2.49.01-4.97.02-7.46v-2.09c-.27.26-.55.52-.83.77-.89.79-1.95.8-2.71.02-.74-.77-.67-1.89.17-2.72.94-.92,1.85-1.82,2.79-2.69,1.58-1.45,3.18-1.46,4.76-.03.96.87,1.9,1.78,2.84,2.68.87.84.95,1.96.21,2.75-.73.79-1.85.78-2.72-.02-.27-.25-.53-.5-.8-.76v9.3c0,2.65-1.14,4.56-3.38,5.69-.81.41-1.74.57-2.74.6-2.08,0-4.16,0-6.24,0-2.71,0-5.43,0-8.14,0h-.01c-1.15,0-1.89.44-2.31,1.39-.2.44-.18.95-.16,1.48,0,.21.02.41.01.61.09.04.14.06.19.09,1.75,1,2.59,2.52,2.44,4.38-.15,1.8-1.13,3.13-2.83,3.85-.57.24-1.16.35-1.74.35ZM19.65,18.86c-2.65,0-5.3,0-7.94.02-1.56.01-2.84.71-3.83,2.08-.7.97-.97,2.13-.89,3.78.03.63-.21,1.05-.8,1.34-1.67.84-2.36,2.82-1.57,4.53.83,1.79,2.78,2.59,4.53,1.85,1.36-.57,2.1-1.58,2.22-3.01.12-1.46-.53-2.62-1.94-3.43-.23-.09-.72-.27-.7-.84,0-.23,0-.46,0-.69-.02-.6-.05-1.28.25-1.94.59-1.31,1.68-1.98,3.23-1.98h.02c2.71,0,5.42,0,8.14,0,2.08,0,4.16,0,6.24,0h.02c.86,0,1.61-.16,2.27-.5,1.9-.96,2.82-2.53,2.82-4.8V5.6c-.02-.29-.06-.65.24-.95l.17-.17.24.03c.06,0,.25,0,.41.15l.54.52c.29.28.58.56.88.83.47.43.96.46,1.31.08.36-.39.3-.9-.15-1.33-.96-.92-1.89-1.82-2.84-2.68-1.2-1.08-2.22-1.08-3.41.02-.93.86-1.84,1.75-2.75,2.64-.38.37-.6.9-.18,1.33.38.4.83.37,1.32-.07.36-.32.7-.65,1.05-.97l.74-.69.33.21c.26.17.39.41.39.72v2.8c0,2.49-.01,4.97-.02,7.46,0,1.01-.35,1.82-1.03,2.41-.7.61-1.58.91-2.67.91h-3.54c-1.03,0-2.05,0-3.08,0Z"/>
  </g>
  <g>
    <path class="cls-2" d="M5.22.78c.36-.03.68.21.97.49.45.44.91.88,1.35,1.33.23.23.4.24.63,0,.45-.47.92-.93,1.4-1.37.62-.59,1.35-.6,1.91-.06.55.53.58,1.32.03,1.93-.43.49-.91.94-1.39,1.38-.3.27-.27.46,0,.72.45.42.87.86,1.29,1.3.63.67.65,1.47.07,2.02-.56.54-1.32.51-1.97-.1-.35-.33-.68-.69-1.02-1.03q-.63-.63-1.24-.02c-.36.36-.7.73-1.07,1.07-.65.6-1.41.61-1.98.05-.56-.55-.53-1.32.07-1.97.35-.37.71-.72,1.07-1.08q.61-.62,0-1.2c-.41-.4-.83-.78-1.21-1.21-.39-.43-.46-.95-.2-1.47.24-.49.63-.78,1.28-.78Z"/>
    <path class="cls-1" d="M5.12,9.39c-.46,0-.9-.18-1.27-.55-.76-.75-.73-1.82.06-2.67.23-.25.47-.49.71-.73l.36-.36c.09-.09.18-.19.25-.26-.06-.07-.15-.15-.23-.23l-.33-.32c-.31-.3-.62-.59-.9-.91-.52-.58-.62-1.32-.28-2.03.34-.68.93-1.05,1.71-1.06.58-.03,1.02.32,1.34.63l.11.11c.4.39.81.78,1.2,1.18.47-.48.92-.92,1.37-1.34.81-.76,1.85-.79,2.6-.06.76.74.78,1.82.06,2.62-.38.43-.82.86-1.42,1.4.45.42.88.87,1.31,1.32.81.86.83,1.98.05,2.72-.76.72-1.83.68-2.66-.1-.24-.22-.46-.46-.69-.69l-.35-.36c-.1-.1-.2-.2-.28-.27-.07.07-.17.16-.26.25l-.31.32c-.25.26-.51.52-.78.77-.43.39-.91.59-1.39.59ZM5.28,1.28s-.01,0-.02,0h-.04c-.42,0-.66.15-.83.5-.17.34-.13.64.12.91.27.3.56.58.86.86l.33.32c.36.35.6.58.6.94,0,.36-.22.59-.6.97l-.37.37c-.23.23-.47.46-.69.7-.2.21-.6.76-.09,1.27.51.5,1.02.17,1.29-.07.25-.23.49-.48.73-.73l.32-.33c.38-.38.6-.61.96-.61h0c.36,0,.6.24.99.62l.36.37c.21.22.43.44.65.65.27.25.78.59,1.29.11.38-.36.34-.85-.09-1.32-.41-.44-.83-.87-1.27-1.28-.16-.15-.38-.39-.38-.73,0-.38.29-.63.38-.72.58-.52.99-.93,1.36-1.34.36-.4.36-.88-.01-1.24-.47-.45-.92-.21-1.22.07-.47.44-.93.89-1.38,1.36-.08.08-.32.33-.67.33h0c-.35,0-.59-.25-.67-.33-.4-.41-.81-.81-1.23-1.21l-.11-.11c-.25-.24-.43-.35-.57-.35Z"/>
  </g>
  <g>
    <path class="cls-2" d="M32.15,31.75c.01.64-.24,1.08-.72,1.32-.48.24-1,.22-1.42-.16-.52-.46-1.01-.96-1.49-1.46-.27-.29-.47-.34-.76-.01-.41.46-.84.89-1.29,1.3-.66.62-1.44.62-2.03.04-.53-.52-.48-1.32.14-1.97.43-.46.88-.91,1.33-1.35.24-.23.24-.39,0-.62-.48-.45-.94-.91-1.4-1.38-.59-.61-.58-1.41,0-1.97.55-.54,1.3-.52,1.91.06.48.45.95.9,1.4,1.37.23.24.4.24.63,0,.45-.47.92-.93,1.4-1.37.62-.58,1.37-.6,1.91-.06.53.53.56,1.34.02,1.94-.42.47-.88.91-1.35,1.33-.29.27-.34.47-.02.76.45.41.87.86,1.29,1.3.27.28.47.6.46.92Z"/>
    <path class="cls-1" d="M30.8,33.73c-.41,0-.8-.15-1.13-.44-.47-.42-.95-.89-1.52-1.49,0,0-.02-.02-.03-.03-.37.42-.79.85-1.32,1.34-.86.8-1.93.82-2.72.03-.73-.72-.68-1.82.12-2.67.42-.45.85-.88,1.29-1.31-.49-.46-.93-.9-1.36-1.34-.77-.79-.77-1.92,0-2.68.75-.73,1.79-.71,2.61.05.46.44.92.88,1.37,1.34.48-.48.92-.91,1.37-1.34.8-.75,1.88-.78,2.61-.05.73.72.74,1.85.04,2.63-.46.51-.96.97-1.38,1.37,0,0-.02.01-.02.02,0,0,0,0,0,0,.34.31.67.65.99.98l.33.34c.41.42.61.85.6,1.28.02,1.03-.53,1.53-1,1.76-.28.14-.57.21-.85.21ZM28.12,30.72c.34,0,.6.23.76.4.55.58,1.01,1.03,1.46,1.43.25.22.54.25.86.08.22-.11.46-.31.45-.86v-.03c0-.14-.11-.34-.31-.55l-.33-.34c-.31-.32-.61-.64-.94-.94-.09-.09-.38-.35-.38-.74,0-.35.23-.6.4-.76.41-.38.88-.82,1.32-1.3.35-.39.35-.9,0-1.25-.35-.35-.8-.32-1.22.07-.47.44-.93.89-1.38,1.36-.08.08-.32.33-.67.33h0c-.35,0-.59-.25-.67-.33-.45-.46-.91-.91-1.38-1.36-.42-.4-.86-.42-1.22-.07-.38.38-.38.86.02,1.27.45.46.91.92,1.38,1.36.08.08.34.32.34.67,0,.36-.25.6-.33.68-.45.43-.89.88-1.32,1.33-.42.45-.48.95-.15,1.27.54.53,1.07.2,1.34-.05.5-.47.9-.87,1.26-1.27.08-.1.34-.39.73-.39h.01ZM30.66,29.08h0Z"/>
  </g>
  <g>
    <path class="cls-2" d="M17.37,7.54c.32,0,.65.16.93.45.43.44.88.85,1.3,1.3.29.3.51.35.81,0,.41-.45.86-.87,1.3-1.29.61-.58,1.38-.61,1.92-.09.55.53.56,1.38,0,1.99-.44.48-.92.93-1.39,1.38-.24.22-.25.39,0,.62.47.45.93.92,1.38,1.39.56.6.59,1.4.09,1.93-.54.57-1.34.58-1.97,0-.48-.44-.93-.92-1.37-1.4-.25-.27-.42-.25-.66,0-.43.46-.87.91-1.34,1.35-.67.63-1.45.64-2.02.04-.54-.56-.49-1.31.13-1.97.42-.44.84-.89,1.29-1.31.27-.26.29-.45,0-.72-.48-.44-.94-.9-1.39-1.38-.42-.44-.52-.96-.25-1.51.24-.49.62-.79,1.27-.8Z"/>
    <path class="cls-1" d="M17.27,16.16c-.47,0-.93-.2-1.31-.59-.73-.76-.68-1.81.13-2.66.42-.45.85-.89,1.29-1.31-.48-.45-.92-.89-1.4-1.4-.57-.6-.69-1.36-.34-2.08.35-.7.92-1.07,1.71-1.08h.02c.46.01.91.22,1.28.6.19.2.38.38.58.57.25.24.49.48.72.73.02.02.03.03.05.05,0,0,.02-.02.03-.03.34-.38.71-.73,1.08-1.08l.25-.23c.8-.76,1.88-.8,2.61-.09.76.73.76,1.88.01,2.69-.45.48-.92.93-1.36,1.35.48.47.91.91,1.34,1.36.74.79.78,1.89.08,2.62-.73.77-1.85.78-2.67.03-.51-.46-.97-.95-1.36-1.38-.48.51-.91.94-1.33,1.33-.44.41-.93.61-1.41.61ZM17.37,8.04c-.41,0-.64.16-.82.52-.17.35-.12.65.17.95.49.52.94.96,1.37,1.35.09.08.37.34.38.72,0,.38-.27.64-.37.73-.44.41-.85.85-1.27,1.29-.25.27-.61.79-.14,1.28.51.54,1.05.19,1.32-.06.43-.4.87-.85,1.31-1.32.08-.09.33-.36.7-.36h0c.37,0,.61.27.69.36.39.42.85.91,1.34,1.37.43.39.91.4,1.27.02.33-.34.29-.84-.09-1.25-.44-.47-.9-.93-1.36-1.38-.08-.08-.33-.32-.33-.67,0-.36.26-.6.34-.67.47-.44.93-.88,1.37-1.35.37-.4.38-.94.02-1.29-.35-.34-.82-.3-1.23.09l-.25.24c-.35.33-.7.66-1.02,1.02-.09.1-.36.4-.76.41-.38-.03-.62-.23-.79-.4-.22-.24-.46-.47-.69-.7-.2-.2-.4-.39-.6-.59-.18-.18-.38-.29-.57-.29ZM17.47,11.51h0ZM19.94,9.04h0,0ZM20.07,9.04h0Z"/>
  </g>
</svg>